PathFileType	4	(X/Y/Z)	s04c0102.trc
DataRate	CameraRate	NumFrames	NumMarkers	Units	OrigDataRate	OrigDataStartFrame	OrigNumFrames
200	200	7	50	mm	200	1250	2000
Frame#	Time	racr			lacr			c7			jug			rlel			rdr			llel			ldr			s2			lic			ric			lasi			rasi			rpsi			lpsi			rgt			lgt			rth1			rth2			rth3			rth4			rlfc			rmfc			rsh1			rsh2			rsh3			rsh4			rlmal			rmmal			rcal			rtoe			rmt5			lth1			lth2			lth4			lth3			llfc			lmfc			lsh1			lsh2			lsh3			lsh4			llmal			lmmal			lcal			ltoe			lmt5			SBIKE			LBIKE			RBIKE			
		X1	Y1	Z1	X2	Y2	Z2	X3	Y3	Z3	X4	Y4	Z4	X5	Y5	Z5	X6	Y6	Z6	X7	Y7	Z7	X8	Y8	Z8	X9	Y9	Z9	X10	Y10	Z10	X11	Y11	Z11	X12	Y12	Z12	X13	Y13	Z13	X14	Y14	Z14	X15	Y15	Z15	X16	Y16	Z16	X17	Y17	Z17	X18	Y18	Z18	X19	Y19	Z19	X20	Y20	Z20	X21	Y21	Z21	X22	Y22	Z22	X23	Y23	Z23	X24	Y24	Z24	X25	Y25	Z25	X26	Y26	Z26	X27	Y27	Z27	X28	Y28	Z28	X29	Y29	Z29	X30	Y30	Z30	X31	Y31	Z31	X32	Y32	Z32	X33	Y33	Z33	X34	Y34	Z34	X35	Y35	Z35	X36	Y36	Z36	X37	Y37	Z37	X38	Y38	Z38	X39	Y39	Z39	X40	Y40	Z40	X41	Y41	Z41	X42	Y42	Z42	X43	Y43	Z43	X44	Y44	Z44	X45	Y45	Z45	X46	Y46	Z46	X47	Y47	Z47	X48	Y48	Z48	X49	Y49	Z49	X50	Y50	Z50	
1250	6.2500	504.814172	1341.770532	-165.682635	515.242951	1326.326147	-419.478998	490.308714	1391.499385	-295.657184	427.822250	1242.108370	-300.901406	448.136579	1065.774970	-1.804812	678.653885	915.130340	-105.722749	441.839406	1070.553824	-558.190628	675.009191	919.956722	-485.762452	-77.405376	1170.064327	-288.764215	69.555803	1191.879670	-448.312653	76.159914	1182.832371	-125.125823	112.782016	1153.283433	-403.319553	116.324710	1152.063821	-102.552200	-48.719092	1213.711327	-244.768985	-53.554366	1219.538729	-319.456144	29.110778	1117.835295	-112.437628	50.865968	1106.200882	-473.883475	129.537104	988.430852	-83.357656	200.473012	935.427628	-80.979457	237.349730	858.460647	-78.161419	227.318836	957.626018	-94.594604	305.810174	731.307491	-92.506811	298.252029	714.826407	-206.991418	222.562375	636.259159	-75.925514	186.697795	554.814129	-96.957898	115.016519	508.826447	-112.678929	215.241975	538.407729	-117.624841	29.338436	384.196489	-129.286439	62.139646	380.942464	-211.042904	-39.706518	389.891425	-177.259042	205.062440	212.349287	-155.768373	132.205866	228.782609	-105.883218	123.699401	1047.140900	-477.281853	208.151296	1029.527243	-475.603948	224.031958	1061.585520	-466.953419	274.819158	970.444357	-474.169112	403.615016	876.992583	-445.752533	431.346139	856.237952	-335.816099	382.785887	760.479974	-471.198269	372.429377	675.433374	-452.303594	322.170547	602.358953	-453.946248	397.423888	669.027055	-422.359620	263.923884	471.062447	-453.840476	257.916259	469.415894	-365.599348	182.539758	445.136035	-415.203951	482.966605	438.919499	-419.202406	414.582287	399.327996	-481.315031	-185.815415	933.299586	-286.558016	-17.701676	78.942246	-485.518285	-17.633446	79.191754	-84.829488	
1251	6.2550	504.144845	1342.182356	-165.132455	516.262667	1327.029697	-419.868342	490.279197	1391.576604	-295.089098	428.668171	1241.818855	-300.570423	447.216888	1065.518330	-2.540016	678.689389	915.107332	-105.675631	442.649821	1071.021795	-558.156698	675.410967	919.677795	-485.743380	-77.344455	1168.068525	-289.341985	70.010664	1189.677031	-449.072450	76.435259	1181.726421	-125.716145	113.517862	1150.717258	-403.517482	116.555253	1151.570535	-103.302437	-48.772298	1211.533393	-245.684594	-54.149830	1218.178427	-319.471089	29.632578	1116.668510	-112.815577	51.625008	1100.477483	-473.443476	131.725843	989.465137	-84.198292	203.601022	937.862388	-81.452541	241.987556	861.665649	-77.763964	229.813498	960.048989	-95.964047	311.423312	735.257351	-91.636941	304.221529	718.737982	-206.179068	226.661056	641.960324	-75.424373	189.048522	561.433911	-96.753876	116.287487	517.083221	-112.737623	217.237781	544.512876	-117.462003	27.631923	394.916193	-129.832130	60.406649	391.156539	-211.568525	-41.251360	401.941057	-177.961621	200.323807	220.062959	-155.736514	127.730464	237.930133	-106.034298	123.788582	1040.735236	-476.814862	208.455763	1022.045467	-475.723111	224.876081	1053.990328	-467.495637	274.045478	961.857558	-473.691355	400.204914	865.703087	-445.373173	426.585973	844.925648	-336.152689	380.017643	748.547724	-471.310743	371.676370	663.535978	-451.642127	323.393906	589.312245	-452.981533	396.935335	657.848419	-421.763028	266.684955	457.956245	-453.465457	260.079013	454.755481	-366.320078	185.502501	430.339771	-415.077269	486.342626	430.819925	-419.061394	418.763803	389.783352	-481.141329	-185.752737	933.278337	-286.539946	-17.678550	78.929514	-485.515226	-17.402995	78.921099	-84.887660	
1252	6.2600	503.641488	1342.541234	-164.589253	516.660195	1327.321741	-419.123536	490.293542	1391.803858	-294.473262	428.608329	1242.070291	-300.103773	446.819800	1065.327661	-3.289896	679.057762	915.003966	-105.673581	443.684731	1071.328372	-558.114679	675.920611	919.332979	-485.628362	-77.192701	1166.271493	-289.954199	70.563803	1187.658936	-449.909288	76.813384	1180.789847	-126.273347	114.422387	1148.017091	-403.712237	116.887565	1151.208339	-104.081856	-48.770094	1209.893786	-246.300391	-53.943404	1216.143011	-320.241311	30.358907	1115.608830	-113.133453	52.393415	1095.202152	-472.932519	133.911748	990.762149	-84.994290	206.682664	940.305998	-81.874087	246.427279	864.904346	-77.525745	232.506321	962.762158	-96.613179	316.980872	739.205816	-90.878907	310.133868	722.599605	-205.321749	230.756192	647.834722	-74.921979	191.424957	568.146942	-96.649277	117.731719	525.477232	-112.740048	220.307175	550.950298	-117.271095	26.243051	405.772939	-130.371665	59.188108	401.338817	-212.011924	-42.435368	413.962386	-178.599481	196.163904	228.395666	-155.705675	123.867982	247.490807	-106.159333	124.453462	1035.267705	-477.218271	208.791352	1015.001349	-475.905189	225.806334	1046.697352	-467.936933	273.256114	953.687835	-473.329036	396.590057	854.940261	-445.256634	423.028780	834.634421	-336.089234	377.343772	737.981065	-471.405233	370.562676	653.038335	-451.512642	323.813488	577.898824	-452.317954	396.355693	647.755044	-422.015603	269.045246	445.284417	-453.246122	263.182060	442.603592	-365.851405	188.743569	416.525994	-415.449700	489.265136	422.185675	-418.784965	422.441683	379.994120	-480.922268	-185.640592	933.301188	-286.566222	-17.634974	78.926290	-485.513776	-17.607544	79.175480	-84.843609	
1253	6.2650	503.188893	1342.825698	-164.023444	517.460571	1327.506913	-418.552121	490.303213	1392.318381	-294.117142	428.808348	1242.512627	-300.210484	446.784678	1065.115075	-4.072965	679.603918	914.894714	-105.678148	444.929696	1071.630919	-558.166587	676.538876	919.007140	-485.419928	-76.438586	1164.558588	-291.671569	71.062601	1185.977910	-450.696708	77.263452	1180.071816	-126.874605	115.150888	1146.361443	-404.360018	117.302492	1151.003360	-104.880793	-48.729348	1208.535866	-246.854485	-53.815223	1214.382495	-320.899170	31.259412	1114.695514	-113.366879	53.039899	1090.412480	-472.472914	136.163975	992.000133	-85.659562	209.748350	942.901170	-82.257219	250.723257	868.205004	-77.136602	235.406608	965.788650	-96.200349	322.432384	743.513267	-90.174247	315.825364	726.635965	-204.629056	234.633467	653.943968	-74.556733	193.842765	575.117235	-96.427628	119.325274	534.011432	-112.719743	222.528302	557.511678	-117.174259	25.357759	416.624194	-130.751681	57.763174	412.192966	-212.389951	-43.275143	425.789303	-179.149500	192.684902	236.947954	-155.777484	120.682495	257.149068	-106.234570	125.142841	1030.302774	-477.900200	209.043719	1008.445694	-476.148341	226.672000	1039.807348	-468.358129	272.418338	945.976219	-473.151406	392.513388	845.029511	-445.424155	419.116544	825.519596	-335.724878	374.677305	728.039296	-471.334646	369.299751	642.875535	-451.621906	323.661534	567.022336	-452.446299	395.333170	637.869251	-422.333631	271.234697	432.947880	-453.247656	264.873034	432.328053	-366.470031	191.318031	402.535080	-415.007213	491.782614	413.071811	-418.642183	425.584201	369.967819	-480.788186	-185.508761	933.304535	-286.548244	-17.595007	78.920149	-485.497923	-17.347992	78.902100	-84.874387	
1254	6.2700	502.838236	1343.033952	-163.526213	518.064488	1327.635892	-417.796229	490.395307	1392.653051	-293.567397	428.862524	1242.866806	-300.037608	447.170922	1064.904545	-4.857572	680.262735	914.727266	-105.746026	446.334871	1071.953255	-558.386261	677.317565	918.700727	-485.252363	-76.000046	1163.378713	-292.154868	71.655442	1184.678475	-451.559273	77.709179	1179.641242	-127.477218	115.826292	1145.005934	-405.160249	117.781737	1150.976940	-105.691308	-48.608284	1207.685511	-247.418217	-54.311330	1212.933404	-319.595187	32.337349	1114.029256	-113.563663	53.518496	1086.448008	-472.041107	138.445147	993.768763	-86.282144	212.773717	945.648022	-82.484952	254.903656	871.683488	-76.684215	238.066341	968.731637	-96.744719	327.906060	747.901499	-89.626613	321.422449	730.743486	-203.927495	238.666866	660.228914	-74.216534	195.977047	582.288445	-96.877270	121.070224	542.675312	-112.700977	224.637043	564.163035	-117.264151	24.865536	427.430985	-131.103560	57.619371	422.124258	-212.963036	-43.681532	437.536967	-179.507156	189.909009	245.885203	-155.831956	118.119066	267.059106	-106.323409	125.665112	1025.843186	-478.715553	209.090354	1002.340762	-476.482218	227.308832	1033.368937	-468.803248	270.967412	938.452384	-472.562996	388.330543	836.116069	-445.850114	415.005199	816.953339	-335.314798	371.845391	718.224140	-470.994753	367.766159	632.896885	-451.923018	323.095449	556.465063	-452.884127	393.862393	628.246452	-422.642869	273.011759	420.928046	-453.617926	267.846977	418.900494	-364.060414	193.505261	389.667346	-415.461842	493.880571	403.585131	-418.476978	428.239717	359.636132	-480.607007	-185.612619	933.268183	-286.194657	-17.572795	78.915962	-485.508963	-17.557957	79.162254	-84.840404	
1255	6.2750	502.661432	1343.188912	-163.109573	518.877989	1327.937957	-417.078696	490.558558	1393.011563	-293.136689	429.311669	1243.117260	-300.077779	447.858260	1064.689631	-5.547631	680.975242	914.502667	-105.806187	447.790305	1072.292017	-558.591258	678.018017	918.402198	-485.154389	-75.383832	1162.768853	-292.586013	72.237027	1183.718842	-452.378117	78.236686	1179.555451	-128.122429	116.497195	1143.858717	-405.788623	118.308604	1151.144783	-106.507507	-48.310969	1207.187227	-248.027216	-54.624999	1211.390262	-319.102088	33.549376	1113.654108	-113.659444	53.739879	1083.696714	-471.868495	140.678508	995.750351	-86.214874	215.741801	948.701126	-82.719186	258.887992	875.412928	-76.256831	240.527838	972.087528	-97.139039	332.862158	752.511879	-89.657266	326.807465	735.309521	-203.426113	242.711098	666.721432	-73.933269	198.491014	589.484538	-97.122123	123.053411	551.482368	-112.711235	227.001214	571.028286	-117.145617	24.867376	438.210275	-131.357324	57.472871	432.385128	-213.316600	-43.704607	449.205086	-179.791033	187.581530	254.965965	-156.034922	116.267710	277.057745	-106.355295	125.870384	1022.091826	-479.448380	208.740509	996.729342	-476.944097	227.619964	1027.377630	-469.270152	269.173530	931.516210	-472.578377	384.183670	827.687232	-446.403738	410.855116	808.520999	-335.162261	368.744061	708.559092	-470.760992	365.797324	623.173124	-452.129758	322.108607	546.221730	-453.469195	392.013908	618.712632	-422.905934	274.586292	409.166121	-454.151892	269.790098	407.179971	-363.856697	195.280067	377.434997	-416.246333	495.604602	393.663617	-418.153827	430.462203	349.188409	-480.496761	-185.575662	933.277467	-286.222274	-17.557314	78.897463	-485.510521	-17.550013	79.168115	-84.843813	
1256	6.2800	502.655387	1343.275867	-162.599964	519.741108	1328.227700	-416.444960	490.914216	1393.376443	-292.695011	429.723653	1243.469783	-300.107104	448.793805	1064.469687	-6.108208	681.622035	914.271556	-105.789893	449.303400	1072.756871	-558.956225	678.737442	918.132031	-485.034379	-74.786763	1162.201659	-292.655881	72.854408	1183.383876	-453.194389	78.722979	1179.849394	-128.807258	117.254975	1143.258449	-406.917644	118.868246	1151.516582	-107.325521	-47.936389	1207.291472	-248.674557	-55.308265	1210.218952	-317.323724	34.858937	1113.732696	-113.680113	53.790394	1082.172446	-471.997946	143.040080	998.224270	-86.117886	218.709893	952.228323	-82.753862	262.771204	879.398249	-75.996563	243.193328	975.490285	-97.721554	338.160832	757.884885	-88.971082	332.009589	740.169088	-202.956525	246.776129	673.533133	-73.642953	201.370180	597.020154	-97.039855	125.251019	560.272693	-112.581439	229.414640	578.130880	-117.239879	25.116301	449.027791	-131.710454	57.574071	442.834293	-213.667719	-43.457783	460.742067	-180.025999	186.079225	264.769218	-156.114700	114.816063	287.318540	-106.454403	125.529049	1019.213845	-480.127584	207.761027	991.757254	-477.355327	227.339054	1021.948758	-469.788949	266.543344	925.078203	-472.692327	379.556537	819.351698	-447.258910	405.799893	799.636871	-336.407419	365.272610	699.192359	-471.035528	363.428748	613.794388	-452.613732	320.808737	536.243351	-454.119848	389.803447	609.548011	-423.497426	275.672132	397.761157	-454.808000	270.926347	396.237220	-364.246052	196.543893	366.048899	-417.570241	496.943914	383.410606	-417.867002	432.177110	338.583378	-480.268562	-185.579719	933.372540	-286.280063	-17.551300	78.922353	-485.512059	-17.546164	79.169076	-84.835626	
